<svg xmlns="http://www.w3.org/2000/svg" width="34" height="27" fill="none" viewBox="0 0 34 27">
  <path fill="#fff" d="M28.801 2.252A27.27 27.27 0 0 0 21.787 0a21.204 21.204 0 0 0-.899 1.906 25.217 25.217 0 0 0-7.774 0A20.54 20.54 0 0 0 12.205 0a27.18 27.18 0 0 0-7.02 2.257C.746 9.11-.457 15.793.145 22.381c2.944 2.246 5.797 3.61 8.602 4.503a21.944 21.944 0 0 0 1.843-3.1 17.969 17.969 0 0 1-2.902-1.442c.244-.184.482-.377.712-.575 5.594 2.673 11.673 2.673 17.2 0 .233.198.47.39.711.575a17.915 17.915 0 0 1-2.906 1.445 21.842 21.842 0 0 0 1.842 3.1c2.808-.893 5.664-2.257 8.608-4.506.707-7.637-1.206-14.258-5.054-20.13ZM11.352 18.33c-1.68 0-3.057-1.602-3.057-3.553 0-1.95 1.348-3.554 3.057-3.554 1.709 0 3.086 1.601 3.057 3.554.002 1.95-1.348 3.553-3.057 3.553Zm11.296 0c-1.68 0-3.057-1.602-3.057-3.553 0-1.95 1.348-3.554 3.057-3.554 1.709 0 3.086 1.601 3.056 3.554 0 1.95-1.347 3.553-3.056 3.553Z"/>
</svg>
