<svg xmlns="http://www.w3.org/2000/svg" width="34" height="34" fill="none" viewBox="0 0 34 34">
  <path fill="#fff" d="M17 0C7.612 0 0 7.794 0 17.408 0 25.1 4.871 31.625 11.626 33.927c.85.16 1.161-.378 1.161-.838 0-.415-.016-1.786-.023-3.24-4.73 1.052-5.727-2.055-5.727-2.055-.774-2.012-1.888-2.547-1.888-2.547-1.542-1.08.116-1.058.116-1.058 1.708.123 2.606 1.794 2.606 1.794 1.517 2.661 3.977 1.892 4.947 1.447.153-1.125.594-1.893 1.08-2.328-3.776-.44-7.745-1.933-7.745-8.603 0-1.9.664-3.454 1.751-4.673-.176-.438-.758-2.209.165-4.607 0 0 1.427-.467 4.676 1.785 1.356-.386 2.81-.58 4.255-.586 1.445.007 2.9.2 4.259.586 3.245-2.252 4.67-1.785 4.67-1.785.926 2.398.343 4.169.167 4.607 1.09 1.22 1.75 2.772 1.75 4.673 0 6.686-3.977 8.158-7.763 8.59.61.54 1.153 1.599 1.153 3.223 0 2.33-.02 4.204-.02 4.777 0 .464.306 1.006 1.168.835C29.135 31.62 34 25.097 34 17.408 34 7.794 26.389 0 17 0ZM6.367 24.798c-.037.087-.17.113-.291.053-.124-.056-.193-.174-.153-.261.037-.09.17-.114.293-.054.124.056.194.175.151.262Zm.836.764c-.08.077-.24.041-.347-.08-.111-.122-.132-.284-.05-.362.084-.077.238-.04.35.08.11.123.132.285.047.362Zm.574.978c-.104.074-.274.005-.38-.15-.104-.155-.104-.34.002-.415.106-.075.274-.008.38.146.104.157.104.343-.002.419Zm.97 1.132c-.093.105-.291.077-.437-.067-.148-.14-.19-.34-.096-.444.094-.106.294-.076.44.066.148.14.193.341.093.445Zm1.254.382c-.041.137-.232.199-.425.14-.192-.059-.318-.219-.279-.357.04-.137.232-.201.426-.14.192.06.318.219.278.357Zm1.427.162c.005.144-.158.263-.36.266-.204.004-.368-.112-.37-.253 0-.145.16-.263.362-.267.203-.004.368.112.368.254Zm1.402-.055c.024.14-.116.284-.317.323-.197.037-.38-.05-.405-.189-.025-.143.118-.287.316-.324.2-.036.38.048.406.19Z"/>
</svg>
